<mxfile host="app.diagrams.net" modified="2024-06-09T17:03:12.808Z" agent="Mozilla/5.0 (Windows NT 10.0; Win64; x64; rv:126.0) Gecko/20100101 Firefox/126.0" etag="kJUnG878jQJdpl-acP22" version="24.5.2" type="github">
  <diagram name="Strona-1" id="wZur7nBKVjyFFiqAH7Yr">
    <mxGraphModel dx="3218" dy="2445" grid="1" gridSize="10" guides="1" tooltips="1" connect="1" arrows="1" fold="1" page="1" pageScale="1" pageWidth="827" pageHeight="1169" math="0" shadow="0">
      <root>
        <mxCell id="0" />
        <mxCell id="1" parent="0" />
        <mxCell id="LRdrEGG0Y27MjKcFYS4_-73" value="&lt;font style=&quot;font-size: 31px;&quot;&gt;&lt;b&gt;Availability Zone 1&lt;br&gt;&lt;/b&gt;&lt;/font&gt;" style="rounded=0;whiteSpace=wrap;html=1;dashed=1;verticalAlign=top;strokeWidth=4;" vertex="1" parent="1">
          <mxGeometry x="-734" y="-653" width="1110" height="508" as="geometry" />
        </mxCell>
        <mxCell id="LRdrEGG0Y27MjKcFYS4_-60" value="&lt;b style=&quot;font-size: 17px;&quot;&gt;Availability Set 1&lt;br&gt;&lt;/b&gt;" style="rounded=0;whiteSpace=wrap;html=1;strokeColor=#6c8ebf;dashed=1;fillColor=#dae8fc;verticalAlign=top;strokeWidth=3;" vertex="1" parent="1">
          <mxGeometry x="-705" y="-585" width="520" height="420" as="geometry" />
        </mxCell>
        <mxCell id="LRdrEGG0Y27MjKcFYS4_-54" value="&lt;b style=&quot;font-size: 15px;&quot;&gt;Storage Cluster&lt;/b&gt;" style="rounded=0;whiteSpace=wrap;html=1;strokeColor=#6c8ebf;dashed=1;fillColor=#dae8fc;verticalAlign=bottom;strokeWidth=2;fontSize=15;" vertex="1" parent="1">
          <mxGeometry x="-657" y="-336" width="422" height="156" as="geometry" />
        </mxCell>
        <mxCell id="LRdrEGG0Y27MjKcFYS4_-48" value="&lt;b style=&quot;font-size: 15px;&quot;&gt;Compute Cluster&lt;br style=&quot;font-size: 15px;&quot;&gt;&lt;/b&gt;" style="rounded=0;whiteSpace=wrap;html=1;strokeColor=#6c8ebf;dashed=1;fillColor=#dae8fc;verticalAlign=top;strokeWidth=2;fontSize=15;" vertex="1" parent="1">
          <mxGeometry x="-657" y="-545" width="422" height="170" as="geometry" />
        </mxCell>
        <mxCell id="LRdrEGG0Y27MjKcFYS4_-43" value="" style="edgeStyle=orthogonalEdgeStyle;rounded=0;orthogonalLoop=1;jettySize=auto;html=1;shape=link;" edge="1" parent="1" source="LRdrEGG0Y27MjKcFYS4_-41" target="LRdrEGG0Y27MjKcFYS4_-5">
          <mxGeometry relative="1" as="geometry" />
        </mxCell>
        <mxCell id="LRdrEGG0Y27MjKcFYS4_-41" value="" style="rounded=0;whiteSpace=wrap;html=1;strokeColor=#6c8ebf;dashed=1;fillColor=#dae8fc;strokeWidth=3;" vertex="1" parent="1">
          <mxGeometry x="590" y="178" width="270" height="150" as="geometry" />
        </mxCell>
        <mxCell id="LRdrEGG0Y27MjKcFYS4_-32" value="" style="rounded=0;whiteSpace=wrap;html=1;strokeColor=#6c8ebf;dashed=1;fillColor=#dae8fc;strokeWidth=3;" vertex="1" parent="1">
          <mxGeometry x="480" y="-241" width="180" height="273" as="geometry" />
        </mxCell>
        <mxCell id="LRdrEGG0Y27MjKcFYS4_-104" style="edgeStyle=orthogonalEdgeStyle;rounded=0;orthogonalLoop=1;jettySize=auto;html=1;shape=link;exitX=1.005;exitY=0.818;exitDx=0;exitDy=0;exitPerimeter=0;" edge="1" parent="1" source="LRdrEGG0Y27MjKcFYS4_-27" target="LRdrEGG0Y27MjKcFYS4_-12">
          <mxGeometry relative="1" as="geometry" />
        </mxCell>
        <mxCell id="LRdrEGG0Y27MjKcFYS4_-27" value="" style="rounded=0;whiteSpace=wrap;html=1;strokeColor=#6c8ebf;dashed=1;fillColor=#dae8fc;strokeWidth=3;fontSize=15;" vertex="1" parent="1">
          <mxGeometry x="-380" y="-46" width="550" height="366" as="geometry" />
        </mxCell>
        <mxCell id="LRdrEGG0Y27MjKcFYS4_-5" value="&lt;div style=&quot;font-size: 15px;&quot;&gt;End user / client&lt;/div&gt;&lt;div style=&quot;font-size: 15px;&quot;&gt;&lt;br style=&quot;font-size: 15px;&quot;&gt;&lt;/div&gt;" style="image;sketch=0;aspect=fixed;html=1;points=[];align=center;fontSize=15;image=img/lib/mscae/Person.svg;" vertex="1" parent="1">
          <mxGeometry x="920" y="204.38" width="71.5" height="96.62" as="geometry" />
        </mxCell>
        <mxCell id="LRdrEGG0Y27MjKcFYS4_-11" value="Azure App Services" style="image;aspect=fixed;html=1;points=[];align=center;fontSize=15;image=img/lib/azure2/app_services/App_Services.svg;" vertex="1" parent="1">
          <mxGeometry x="-153" y="1" width="94" height="94" as="geometry" />
        </mxCell>
        <mxCell id="LRdrEGG0Y27MjKcFYS4_-42" value="" style="edgeStyle=orthogonalEdgeStyle;rounded=0;orthogonalLoop=1;jettySize=auto;html=1;shape=link;" edge="1" parent="1" source="LRdrEGG0Y27MjKcFYS4_-31" target="LRdrEGG0Y27MjKcFYS4_-41">
          <mxGeometry relative="1" as="geometry" />
        </mxCell>
        <mxCell id="LRdrEGG0Y27MjKcFYS4_-12" value="&lt;div style=&quot;font-size: 15px;&quot;&gt;Azure Front Door&lt;br style=&quot;font-size: 15px;&quot;&gt;and CDN Profiles&lt;/div&gt;" style="image;aspect=fixed;html=1;points=[];align=center;fontSize=15;image=img/lib/azure2/networking/Front_Doors.svg;" vertex="1" parent="1">
          <mxGeometry x="267" y="211.5" width="94.63" height="83.5" as="geometry" />
        </mxCell>
        <mxCell id="LRdrEGG0Y27MjKcFYS4_-14" value="Azure SQL Database" style="verticalLabelPosition=bottom;html=1;verticalAlign=top;align=center;strokeColor=none;fillColor=#00BEF2;shape=mxgraph.azure.sql_database_sql_azure;fontSize=15;" vertex="1" parent="1">
          <mxGeometry x="543.25" y="-89.5" width="68.75" height="70.5" as="geometry" />
        </mxCell>
        <mxCell id="LRdrEGG0Y27MjKcFYS4_-15" value="Azure Blob Storage" style="verticalLabelPosition=bottom;html=1;verticalAlign=top;align=center;strokeColor=none;fillColor=#00BEF2;shape=mxgraph.azure.storage_blob;fontSize=15;" vertex="1" parent="1">
          <mxGeometry x="530" y="-209" width="80" height="65" as="geometry" />
        </mxCell>
        <mxCell id="LRdrEGG0Y27MjKcFYS4_-22" value="" style="edgeStyle=orthogonalEdgeStyle;rounded=0;orthogonalLoop=1;jettySize=auto;html=1;dashed=1;sourcePerimeterSpacing=-2;entryX=0.5;entryY=1;entryDx=0;entryDy=0;dashPattern=8 8;" edge="1" parent="1" source="LRdrEGG0Y27MjKcFYS4_-21" target="LRdrEGG0Y27MjKcFYS4_-32">
          <mxGeometry relative="1" as="geometry">
            <mxPoint x="-430" y="130" as="targetPoint" />
          </mxGeometry>
        </mxCell>
        <mxCell id="LRdrEGG0Y27MjKcFYS4_-25" value="&lt;div style=&quot;font-size: 15px;&quot;&gt;Monitoring&lt;/div&gt;&lt;div style=&quot;font-size: 15px;&quot;&gt;&lt;br style=&quot;font-size: 15px;&quot;&gt;&lt;/div&gt;" style="edgeLabel;html=1;align=center;verticalAlign=middle;resizable=0;points=[];fontSize=15;" vertex="1" connectable="0" parent="LRdrEGG0Y27MjKcFYS4_-22">
          <mxGeometry x="0.0115" y="-1" relative="1" as="geometry">
            <mxPoint as="offset" />
          </mxGeometry>
        </mxCell>
        <mxCell id="LRdrEGG0Y27MjKcFYS4_-21" value="Azure Monitor" style="image;aspect=fixed;html=1;points=[];align=center;fontSize=15;image=img/lib/azure2/management_governance/Monitor.svg;" vertex="1" parent="1">
          <mxGeometry x="320" y="70" width="80" height="80" as="geometry" />
        </mxCell>
        <mxCell id="LRdrEGG0Y27MjKcFYS4_-26" value="PROD" style="image;sketch=0;aspect=fixed;html=1;points=[];align=center;fontSize=15;image=img/lib/mscae/App_Services.svg;" vertex="1" parent="1">
          <mxGeometry x="-319" y="180" width="80" height="80" as="geometry" />
        </mxCell>
        <mxCell id="LRdrEGG0Y27MjKcFYS4_-28" value="UAT" style="image;sketch=0;aspect=fixed;html=1;points=[];align=center;fontSize=15;image=img/lib/mscae/App_Services.svg;" vertex="1" parent="1">
          <mxGeometry x="-141" y="180" width="80" height="80" as="geometry" />
        </mxCell>
        <mxCell id="LRdrEGG0Y27MjKcFYS4_-30" value="DEV" style="image;sketch=0;aspect=fixed;html=1;points=[];align=center;fontSize=15;image=img/lib/mscae/App_Services.svg;" vertex="1" parent="1">
          <mxGeometry x="29" y="180" width="80" height="80" as="geometry" />
        </mxCell>
        <mxCell id="LRdrEGG0Y27MjKcFYS4_-36" value="Stationary / mobile devices&lt;br style=&quot;font-size: 15px;&quot;&gt;with internet access" style="verticalLabelPosition=bottom;html=1;verticalAlign=top;align=center;strokeColor=none;fillColor=#00BEF2;shape=mxgraph.azure.laptop;pointerEvents=1;fontSize=15;" vertex="1" parent="1">
          <mxGeometry x="629" y="197" width="110" height="72.75" as="geometry" />
        </mxCell>
        <mxCell id="LRdrEGG0Y27MjKcFYS4_-38" value="" style="verticalLabelPosition=bottom;html=1;verticalAlign=top;align=center;strokeColor=none;fillColor=#00BEF2;shape=mxgraph.azure.mobile;pointerEvents=1;" vertex="1" parent="1">
          <mxGeometry x="779" y="209" width="51" height="69" as="geometry" />
        </mxCell>
        <mxCell id="LRdrEGG0Y27MjKcFYS4_-57" style="edgeStyle=orthogonalEdgeStyle;rounded=0;orthogonalLoop=1;jettySize=auto;html=1;shape=link;" edge="1" parent="1" source="LRdrEGG0Y27MjKcFYS4_-44" target="LRdrEGG0Y27MjKcFYS4_-49">
          <mxGeometry relative="1" as="geometry" />
        </mxCell>
        <mxCell id="LRdrEGG0Y27MjKcFYS4_-44" value="Virtual Machine&lt;br style=&quot;font-size: 15px;&quot;&gt;FaultDomain0" style="image;aspect=fixed;html=1;points=[];align=center;fontSize=15;image=img/lib/azure2/compute/Virtual_Machines_Classic.svg;" vertex="1" parent="1">
          <mxGeometry x="-615" y="-495" width="69" height="64" as="geometry" />
        </mxCell>
        <mxCell id="LRdrEGG0Y27MjKcFYS4_-45" value="" style="edgeStyle=orthogonalEdgeStyle;rounded=0;orthogonalLoop=1;jettySize=auto;html=1;shape=link;" edge="1" parent="1" source="LRdrEGG0Y27MjKcFYS4_-12" target="LRdrEGG0Y27MjKcFYS4_-31">
          <mxGeometry relative="1" as="geometry">
            <mxPoint x="-42" y="228" as="sourcePoint" />
            <mxPoint x="200" y="229" as="targetPoint" />
          </mxGeometry>
        </mxCell>
        <mxCell id="LRdrEGG0Y27MjKcFYS4_-31" value="&lt;div style=&quot;font-size: 15px;&quot;&gt;Azure Traffic Manager&lt;/div&gt;" style="verticalLabelPosition=bottom;html=1;verticalAlign=top;align=center;strokeColor=none;fillColor=#00BEF2;shape=mxgraph.azure.traffic_manager;pointerEvents=1;fontSize=15;" vertex="1" parent="1">
          <mxGeometry x="430" y="214" width="80" height="78" as="geometry" />
        </mxCell>
        <mxCell id="LRdrEGG0Y27MjKcFYS4_-58" style="edgeStyle=orthogonalEdgeStyle;rounded=0;orthogonalLoop=1;jettySize=auto;html=1;shape=link;" edge="1" parent="1" source="LRdrEGG0Y27MjKcFYS4_-46" target="LRdrEGG0Y27MjKcFYS4_-50">
          <mxGeometry relative="1" as="geometry" />
        </mxCell>
        <mxCell id="LRdrEGG0Y27MjKcFYS4_-46" value="Virtual Machine&lt;br style=&quot;font-size: 15px;&quot;&gt;FaultDomain1" style="image;aspect=fixed;html=1;points=[];align=center;fontSize=15;image=img/lib/azure2/compute/Virtual_Machines_Classic.svg;" vertex="1" parent="1">
          <mxGeometry x="-475" y="-495" width="69" height="64" as="geometry" />
        </mxCell>
        <mxCell id="LRdrEGG0Y27MjKcFYS4_-59" style="edgeStyle=orthogonalEdgeStyle;rounded=0;orthogonalLoop=1;jettySize=auto;html=1;shape=link;" edge="1" parent="1" source="LRdrEGG0Y27MjKcFYS4_-47" target="LRdrEGG0Y27MjKcFYS4_-51">
          <mxGeometry relative="1" as="geometry" />
        </mxCell>
        <mxCell id="LRdrEGG0Y27MjKcFYS4_-47" value="Virtual Machine&lt;br style=&quot;font-size: 15px;&quot;&gt;FaultDomain2" style="image;aspect=fixed;html=1;points=[];align=center;fontSize=15;image=img/lib/azure2/compute/Virtual_Machines_Classic.svg;" vertex="1" parent="1">
          <mxGeometry x="-334" y="-495" width="69" height="64" as="geometry" />
        </mxCell>
        <mxCell id="LRdrEGG0Y27MjKcFYS4_-49" value="Managed Disk&lt;br style=&quot;font-size: 15px;&quot;&gt;FD0" style="image;aspect=fixed;html=1;points=[];align=center;fontSize=15;image=img/lib/azure2/compute/Disks.svg;" vertex="1" parent="1">
          <mxGeometry x="-609" y="-305" width="56.99999999999999" height="56.00000000000001" as="geometry" />
        </mxCell>
        <mxCell id="LRdrEGG0Y27MjKcFYS4_-50" value="Managed Disk&lt;br style=&quot;font-size: 15px;&quot;&gt;FD1" style="image;aspect=fixed;html=1;points=[];align=center;fontSize=15;image=img/lib/azure2/compute/Disks.svg;" vertex="1" parent="1">
          <mxGeometry x="-469" y="-305" width="56.99999999999999" height="56.00000000000001" as="geometry" />
        </mxCell>
        <mxCell id="LRdrEGG0Y27MjKcFYS4_-51" value="Managed Disk&lt;br style=&quot;font-size: 15px;&quot;&gt;FD2" style="image;aspect=fixed;html=1;points=[];align=center;fontSize=15;image=img/lib/azure2/compute/Disks.svg;" vertex="1" parent="1">
          <mxGeometry x="-328" y="-305" width="56.99999999999999" height="56.00000000000001" as="geometry" />
        </mxCell>
        <mxCell id="LRdrEGG0Y27MjKcFYS4_-61" value="&lt;b style=&quot;font-size: 17px;&quot;&gt;Availability Set 2&lt;br&gt;&lt;/b&gt;" style="rounded=0;whiteSpace=wrap;html=1;strokeColor=#6c8ebf;dashed=1;fillColor=#dae8fc;verticalAlign=top;strokeWidth=3;" vertex="1" parent="1">
          <mxGeometry x="-167" y="-584" width="520" height="420" as="geometry" />
        </mxCell>
        <mxCell id="LRdrEGG0Y27MjKcFYS4_-62" value="&lt;b style=&quot;font-size: 15px;&quot;&gt;Storage Cluster&lt;/b&gt;" style="rounded=0;whiteSpace=wrap;html=1;strokeColor=#6c8ebf;dashed=1;fillColor=#dae8fc;verticalAlign=bottom;strokeWidth=2;fontSize=15;" vertex="1" parent="1">
          <mxGeometry x="-119" y="-333" width="422" height="153" as="geometry" />
        </mxCell>
        <mxCell id="LRdrEGG0Y27MjKcFYS4_-63" value="&lt;b style=&quot;font-size: 15px;&quot;&gt;Compute Cluster&lt;br style=&quot;font-size: 15px;&quot;&gt;&lt;/b&gt;" style="rounded=0;whiteSpace=wrap;html=1;strokeColor=#6c8ebf;dashed=1;fillColor=#dae8fc;verticalAlign=top;strokeWidth=2;fontSize=15;" vertex="1" parent="1">
          <mxGeometry x="-119" y="-544" width="422" height="170" as="geometry" />
        </mxCell>
        <mxCell id="LRdrEGG0Y27MjKcFYS4_-64" style="edgeStyle=orthogonalEdgeStyle;rounded=0;orthogonalLoop=1;jettySize=auto;html=1;shape=link;" edge="1" parent="1" source="LRdrEGG0Y27MjKcFYS4_-65" target="LRdrEGG0Y27MjKcFYS4_-70">
          <mxGeometry relative="1" as="geometry" />
        </mxCell>
        <mxCell id="LRdrEGG0Y27MjKcFYS4_-65" value="Virtual Machine&lt;br style=&quot;font-size: 15px;&quot;&gt;FaultDomain0" style="image;aspect=fixed;html=1;points=[];align=center;fontSize=15;image=img/lib/azure2/compute/Virtual_Machines_Classic.svg;" vertex="1" parent="1">
          <mxGeometry x="-77" y="-494" width="69" height="64" as="geometry" />
        </mxCell>
        <mxCell id="LRdrEGG0Y27MjKcFYS4_-66" style="edgeStyle=orthogonalEdgeStyle;rounded=0;orthogonalLoop=1;jettySize=auto;html=1;shape=link;" edge="1" parent="1" source="LRdrEGG0Y27MjKcFYS4_-67" target="LRdrEGG0Y27MjKcFYS4_-71">
          <mxGeometry relative="1" as="geometry" />
        </mxCell>
        <mxCell id="LRdrEGG0Y27MjKcFYS4_-67" value="Virtual Machine&lt;br style=&quot;font-size: 15px;&quot;&gt;FaultDomain1" style="image;aspect=fixed;html=1;points=[];align=center;fontSize=15;image=img/lib/azure2/compute/Virtual_Machines_Classic.svg;" vertex="1" parent="1">
          <mxGeometry x="63" y="-494" width="69" height="64" as="geometry" />
        </mxCell>
        <mxCell id="LRdrEGG0Y27MjKcFYS4_-68" style="edgeStyle=orthogonalEdgeStyle;rounded=0;orthogonalLoop=1;jettySize=auto;html=1;shape=link;" edge="1" parent="1" source="LRdrEGG0Y27MjKcFYS4_-69" target="LRdrEGG0Y27MjKcFYS4_-72">
          <mxGeometry relative="1" as="geometry" />
        </mxCell>
        <mxCell id="LRdrEGG0Y27MjKcFYS4_-69" value="Virtual Machine&lt;br style=&quot;font-size: 15px;&quot;&gt;FaultDomain2" style="image;aspect=fixed;html=1;points=[];align=center;fontSize=15;image=img/lib/azure2/compute/Virtual_Machines_Classic.svg;" vertex="1" parent="1">
          <mxGeometry x="204" y="-494" width="69" height="64" as="geometry" />
        </mxCell>
        <mxCell id="LRdrEGG0Y27MjKcFYS4_-70" value="Managed Disk&lt;br style=&quot;font-size: 15px;&quot;&gt;FD0" style="image;aspect=fixed;html=1;points=[];align=center;fontSize=15;image=img/lib/azure2/compute/Disks.svg;" vertex="1" parent="1">
          <mxGeometry x="-71" y="-304" width="56.99999999999999" height="56.00000000000001" as="geometry" />
        </mxCell>
        <mxCell id="LRdrEGG0Y27MjKcFYS4_-71" value="Managed Disk&lt;br style=&quot;font-size: 15px;&quot;&gt;FD1" style="image;aspect=fixed;html=1;points=[];align=center;fontSize=15;image=img/lib/azure2/compute/Disks.svg;" vertex="1" parent="1">
          <mxGeometry x="69" y="-304" width="56.99999999999999" height="56.00000000000001" as="geometry" />
        </mxCell>
        <mxCell id="LRdrEGG0Y27MjKcFYS4_-72" value="Managed Disk&lt;br style=&quot;font-size: 15px;&quot;&gt;FD2" style="image;aspect=fixed;html=1;points=[];align=center;fontSize=15;image=img/lib/azure2/compute/Disks.svg;" vertex="1" parent="1">
          <mxGeometry x="210" y="-304" width="56.99999999999999" height="56.00000000000001" as="geometry" />
        </mxCell>
        <mxCell id="LRdrEGG0Y27MjKcFYS4_-76" value="&lt;font style=&quot;font-size: 31px;&quot;&gt;&lt;b&gt;Availability Zone 2&lt;br&gt;&lt;/b&gt;&lt;/font&gt;" style="rounded=0;whiteSpace=wrap;html=1;dashed=1;verticalAlign=top;strokeWidth=4;" vertex="1" parent="1">
          <mxGeometry x="-734" y="418" width="1110" height="508" as="geometry" />
        </mxCell>
        <mxCell id="LRdrEGG0Y27MjKcFYS4_-77" value="&lt;b style=&quot;font-size: 17px;&quot;&gt;Availability Set 1&lt;br&gt;&lt;/b&gt;" style="rounded=0;whiteSpace=wrap;html=1;strokeColor=#6c8ebf;dashed=1;fillColor=#dae8fc;verticalAlign=top;strokeWidth=3;" vertex="1" parent="1">
          <mxGeometry x="-705" y="486" width="520" height="420" as="geometry" />
        </mxCell>
        <mxCell id="LRdrEGG0Y27MjKcFYS4_-78" value="&lt;b style=&quot;font-size: 15px;&quot;&gt;Storage Cluster&lt;/b&gt;" style="rounded=0;whiteSpace=wrap;html=1;strokeColor=#6c8ebf;dashed=1;fillColor=#dae8fc;verticalAlign=bottom;strokeWidth=2;fontSize=15;" vertex="1" parent="1">
          <mxGeometry x="-657" y="737" width="422" height="153" as="geometry" />
        </mxCell>
        <mxCell id="LRdrEGG0Y27MjKcFYS4_-79" value="&lt;b style=&quot;font-size: 15px;&quot;&gt;Compute Cluster&lt;br style=&quot;font-size: 15px;&quot;&gt;&lt;/b&gt;" style="rounded=0;whiteSpace=wrap;html=1;strokeColor=#6c8ebf;dashed=1;fillColor=#dae8fc;verticalAlign=top;strokeWidth=2;fontSize=15;" vertex="1" parent="1">
          <mxGeometry x="-657" y="526" width="422" height="170" as="geometry" />
        </mxCell>
        <mxCell id="LRdrEGG0Y27MjKcFYS4_-80" style="edgeStyle=orthogonalEdgeStyle;rounded=0;orthogonalLoop=1;jettySize=auto;html=1;shape=link;" edge="1" parent="1" source="LRdrEGG0Y27MjKcFYS4_-81" target="LRdrEGG0Y27MjKcFYS4_-86">
          <mxGeometry relative="1" as="geometry" />
        </mxCell>
        <mxCell id="LRdrEGG0Y27MjKcFYS4_-81" value="Virtual Machine&lt;br style=&quot;font-size: 15px;&quot;&gt;FaultDomain0" style="image;aspect=fixed;html=1;points=[];align=center;fontSize=15;image=img/lib/azure2/compute/Virtual_Machines_Classic.svg;" vertex="1" parent="1">
          <mxGeometry x="-615" y="576" width="69" height="64" as="geometry" />
        </mxCell>
        <mxCell id="LRdrEGG0Y27MjKcFYS4_-82" style="edgeStyle=orthogonalEdgeStyle;rounded=0;orthogonalLoop=1;jettySize=auto;html=1;shape=link;" edge="1" parent="1" source="LRdrEGG0Y27MjKcFYS4_-83" target="LRdrEGG0Y27MjKcFYS4_-87">
          <mxGeometry relative="1" as="geometry" />
        </mxCell>
        <mxCell id="LRdrEGG0Y27MjKcFYS4_-83" value="Virtual Machine&lt;br style=&quot;font-size: 15px;&quot;&gt;FaultDomain1" style="image;aspect=fixed;html=1;points=[];align=center;fontSize=15;image=img/lib/azure2/compute/Virtual_Machines_Classic.svg;" vertex="1" parent="1">
          <mxGeometry x="-475" y="576" width="69" height="64" as="geometry" />
        </mxCell>
        <mxCell id="LRdrEGG0Y27MjKcFYS4_-84" style="edgeStyle=orthogonalEdgeStyle;rounded=0;orthogonalLoop=1;jettySize=auto;html=1;shape=link;" edge="1" parent="1" source="LRdrEGG0Y27MjKcFYS4_-85" target="LRdrEGG0Y27MjKcFYS4_-88">
          <mxGeometry relative="1" as="geometry" />
        </mxCell>
        <mxCell id="LRdrEGG0Y27MjKcFYS4_-85" value="Virtual Machine&lt;br style=&quot;font-size: 15px;&quot;&gt;FaultDomain2" style="image;aspect=fixed;html=1;points=[];align=center;fontSize=15;image=img/lib/azure2/compute/Virtual_Machines_Classic.svg;" vertex="1" parent="1">
          <mxGeometry x="-334" y="576" width="69" height="64" as="geometry" />
        </mxCell>
        <mxCell id="LRdrEGG0Y27MjKcFYS4_-86" value="Managed Disk&lt;br style=&quot;font-size: 15px;&quot;&gt;FD0" style="image;aspect=fixed;html=1;points=[];align=center;fontSize=15;image=img/lib/azure2/compute/Disks.svg;" vertex="1" parent="1">
          <mxGeometry x="-609" y="766" width="56.99999999999999" height="56.00000000000001" as="geometry" />
        </mxCell>
        <mxCell id="LRdrEGG0Y27MjKcFYS4_-87" value="Managed Disk&lt;br style=&quot;font-size: 15px;&quot;&gt;FD1" style="image;aspect=fixed;html=1;points=[];align=center;fontSize=15;image=img/lib/azure2/compute/Disks.svg;" vertex="1" parent="1">
          <mxGeometry x="-469" y="766" width="56.99999999999999" height="56.00000000000001" as="geometry" />
        </mxCell>
        <mxCell id="LRdrEGG0Y27MjKcFYS4_-88" value="Managed Disk&lt;br style=&quot;font-size: 15px;&quot;&gt;FD2" style="image;aspect=fixed;html=1;points=[];align=center;fontSize=15;image=img/lib/azure2/compute/Disks.svg;" vertex="1" parent="1">
          <mxGeometry x="-328" y="766" width="56.99999999999999" height="56.00000000000001" as="geometry" />
        </mxCell>
        <mxCell id="LRdrEGG0Y27MjKcFYS4_-89" value="&lt;b style=&quot;font-size: 17px;&quot;&gt;Availability Set 2&lt;br&gt;&lt;/b&gt;" style="rounded=0;whiteSpace=wrap;html=1;strokeColor=#6c8ebf;dashed=1;fillColor=#dae8fc;verticalAlign=top;strokeWidth=3;" vertex="1" parent="1">
          <mxGeometry x="-167" y="487" width="520" height="420" as="geometry" />
        </mxCell>
        <mxCell id="LRdrEGG0Y27MjKcFYS4_-90" value="&lt;b style=&quot;font-size: 15px;&quot;&gt;Storage Cluster&lt;/b&gt;" style="rounded=0;whiteSpace=wrap;html=1;strokeColor=#6c8ebf;dashed=1;fillColor=#dae8fc;verticalAlign=bottom;strokeWidth=2;fontSize=15;" vertex="1" parent="1">
          <mxGeometry x="-119" y="738" width="422" height="152" as="geometry" />
        </mxCell>
        <mxCell id="LRdrEGG0Y27MjKcFYS4_-91" value="&lt;b style=&quot;font-size: 15px;&quot;&gt;Compute Cluster&lt;br style=&quot;font-size: 15px;&quot;&gt;&lt;/b&gt;" style="rounded=0;whiteSpace=wrap;html=1;strokeColor=#6c8ebf;dashed=1;fillColor=#dae8fc;verticalAlign=top;strokeWidth=2;fontSize=15;" vertex="1" parent="1">
          <mxGeometry x="-119" y="527" width="422" height="170" as="geometry" />
        </mxCell>
        <mxCell id="LRdrEGG0Y27MjKcFYS4_-92" style="edgeStyle=orthogonalEdgeStyle;rounded=0;orthogonalLoop=1;jettySize=auto;html=1;shape=link;" edge="1" parent="1" source="LRdrEGG0Y27MjKcFYS4_-93" target="LRdrEGG0Y27MjKcFYS4_-98">
          <mxGeometry relative="1" as="geometry" />
        </mxCell>
        <mxCell id="LRdrEGG0Y27MjKcFYS4_-93" value="Virtual Machine&lt;br style=&quot;font-size: 15px;&quot;&gt;FaultDomain0" style="image;aspect=fixed;html=1;points=[];align=center;fontSize=15;image=img/lib/azure2/compute/Virtual_Machines_Classic.svg;" vertex="1" parent="1">
          <mxGeometry x="-77" y="577" width="69" height="64" as="geometry" />
        </mxCell>
        <mxCell id="LRdrEGG0Y27MjKcFYS4_-94" style="edgeStyle=orthogonalEdgeStyle;rounded=0;orthogonalLoop=1;jettySize=auto;html=1;shape=link;" edge="1" parent="1" source="LRdrEGG0Y27MjKcFYS4_-95" target="LRdrEGG0Y27MjKcFYS4_-99">
          <mxGeometry relative="1" as="geometry" />
        </mxCell>
        <mxCell id="LRdrEGG0Y27MjKcFYS4_-95" value="Virtual Machine&lt;br style=&quot;font-size: 15px;&quot;&gt;FaultDomain1" style="image;aspect=fixed;html=1;points=[];align=center;fontSize=15;image=img/lib/azure2/compute/Virtual_Machines_Classic.svg;" vertex="1" parent="1">
          <mxGeometry x="63" y="577" width="69" height="64" as="geometry" />
        </mxCell>
        <mxCell id="LRdrEGG0Y27MjKcFYS4_-96" style="edgeStyle=orthogonalEdgeStyle;rounded=0;orthogonalLoop=1;jettySize=auto;html=1;shape=link;" edge="1" parent="1" source="LRdrEGG0Y27MjKcFYS4_-97" target="LRdrEGG0Y27MjKcFYS4_-100">
          <mxGeometry relative="1" as="geometry" />
        </mxCell>
        <mxCell id="LRdrEGG0Y27MjKcFYS4_-97" value="Virtual Machine&lt;br style=&quot;font-size: 15px;&quot;&gt;FaultDomain2" style="image;aspect=fixed;html=1;points=[];align=center;fontSize=15;image=img/lib/azure2/compute/Virtual_Machines_Classic.svg;" vertex="1" parent="1">
          <mxGeometry x="204" y="577" width="69" height="64" as="geometry" />
        </mxCell>
        <mxCell id="LRdrEGG0Y27MjKcFYS4_-98" value="Managed Disk&lt;br style=&quot;font-size: 15px;&quot;&gt;FD0" style="image;aspect=fixed;html=1;points=[];align=center;fontSize=15;image=img/lib/azure2/compute/Disks.svg;" vertex="1" parent="1">
          <mxGeometry x="-71" y="767" width="56.99999999999999" height="56.00000000000001" as="geometry" />
        </mxCell>
        <mxCell id="LRdrEGG0Y27MjKcFYS4_-99" value="Managed Disk&lt;br style=&quot;font-size: 15px;&quot;&gt;FD1" style="image;aspect=fixed;html=1;points=[];align=center;fontSize=15;image=img/lib/azure2/compute/Disks.svg;" vertex="1" parent="1">
          <mxGeometry x="69" y="767" width="56.99999999999999" height="56.00000000000001" as="geometry" />
        </mxCell>
        <mxCell id="LRdrEGG0Y27MjKcFYS4_-100" value="Managed Disk&lt;br style=&quot;font-size: 15px;&quot;&gt;FD2" style="image;aspect=fixed;html=1;points=[];align=center;fontSize=15;image=img/lib/azure2/compute/Disks.svg;" vertex="1" parent="1">
          <mxGeometry x="210" y="767" width="56.99999999999999" height="56.00000000000001" as="geometry" />
        </mxCell>
        <mxCell id="LRdrEGG0Y27MjKcFYS4_-102" style="edgeStyle=orthogonalEdgeStyle;rounded=0;orthogonalLoop=1;jettySize=auto;html=1;entryX=0.364;entryY=-0.008;entryDx=0;entryDy=0;entryPerimeter=0;" edge="1" parent="1" source="LRdrEGG0Y27MjKcFYS4_-73" target="LRdrEGG0Y27MjKcFYS4_-27">
          <mxGeometry relative="1" as="geometry" />
        </mxCell>
        <mxCell id="LRdrEGG0Y27MjKcFYS4_-103" style="edgeStyle=orthogonalEdgeStyle;rounded=0;orthogonalLoop=1;jettySize=auto;html=1;entryX=0.364;entryY=1.004;entryDx=0;entryDy=0;entryPerimeter=0;" edge="1" parent="1" source="LRdrEGG0Y27MjKcFYS4_-76" target="LRdrEGG0Y27MjKcFYS4_-27">
          <mxGeometry relative="1" as="geometry" />
        </mxCell>
        <mxCell id="LRdrEGG0Y27MjKcFYS4_-105" value="&lt;font style=&quot;font-size: 15px;&quot;&gt;Monitoring&lt;/font&gt;" style="edgeStyle=orthogonalEdgeStyle;rounded=0;orthogonalLoop=1;jettySize=auto;html=1;entryX=1;entryY=0.426;entryDx=0;entryDy=0;entryPerimeter=0;dashed=1;dashPattern=8 8;" edge="1" parent="1" source="LRdrEGG0Y27MjKcFYS4_-21" target="LRdrEGG0Y27MjKcFYS4_-27">
          <mxGeometry relative="1" as="geometry" />
        </mxCell>
        <mxCell id="LRdrEGG0Y27MjKcFYS4_-106" style="edgeStyle=orthogonalEdgeStyle;rounded=0;orthogonalLoop=1;jettySize=auto;html=1;exitX=0.001;exitY=0.855;exitDx=0;exitDy=0;entryX=1.005;entryY=0.107;entryDx=0;entryDy=0;entryPerimeter=0;exitPerimeter=0;shape=link;" edge="1" parent="1" source="LRdrEGG0Y27MjKcFYS4_-32" target="LRdrEGG0Y27MjKcFYS4_-27">
          <mxGeometry relative="1" as="geometry" />
        </mxCell>
        <mxCell id="LRdrEGG0Y27MjKcFYS4_-109" style="edgeStyle=orthogonalEdgeStyle;rounded=0;orthogonalLoop=1;jettySize=auto;html=1;entryX=0;entryY=0.5;entryDx=0;entryDy=0;" edge="1" parent="1" source="LRdrEGG0Y27MjKcFYS4_-107" target="LRdrEGG0Y27MjKcFYS4_-27">
          <mxGeometry relative="1" as="geometry" />
        </mxCell>
        <mxCell id="LRdrEGG0Y27MjKcFYS4_-107" value="&lt;font style=&quot;font-size: 15px;&quot;&gt;Azure Autoscale&lt;/font&gt;" style="verticalLabelPosition=bottom;html=1;verticalAlign=top;align=center;strokeColor=none;fillColor=#00BEF2;shape=mxgraph.azure.autoscale;" vertex="1" parent="1">
          <mxGeometry x="-657" y="92" width="150" height="90" as="geometry" />
        </mxCell>
        <mxCell id="LRdrEGG0Y27MjKcFYS4_-108" style="edgeStyle=orthogonalEdgeStyle;rounded=0;orthogonalLoop=1;jettySize=auto;html=1;entryX=0.137;entryY=0.996;entryDx=0;entryDy=0;entryPerimeter=0;" edge="1" parent="1" source="LRdrEGG0Y27MjKcFYS4_-107" target="LRdrEGG0Y27MjKcFYS4_-73">
          <mxGeometry relative="1" as="geometry" />
        </mxCell>
        <mxCell id="LRdrEGG0Y27MjKcFYS4_-110" style="edgeStyle=orthogonalEdgeStyle;rounded=0;orthogonalLoop=1;jettySize=auto;html=1;entryX=0.137;entryY=0.004;entryDx=0;entryDy=0;entryPerimeter=0;" edge="1" parent="1" source="LRdrEGG0Y27MjKcFYS4_-107" target="LRdrEGG0Y27MjKcFYS4_-76">
          <mxGeometry relative="1" as="geometry" />
        </mxCell>
      </root>
    </mxGraphModel>
  </diagram>
</mxfile>
